<svg xmlns="http://www.w3.org/2000/svg" xmlns:xlink="http://www.w3.org/1999/xlink" width="119.832" height="41.97" viewBox="0 0 119.832 41.97">
  <defs>
    <clipPath id="clip-path">
      <path id="Trazado_93" data-name="Trazado 93" d="M204.684-68.907c.042-.084.009-.13-.043-.143a61.616,61.616,0,0,1-10.465,2.32c-2.709.409-5.032.478-6.333.569l-.589.048a.135.135,0,0,0-.118.11c-.016.05.022.085.06.115a4.135,4.135,0,0,0,2.525,1.212c1.752.244,4.353-.217,7.6-1.163a35.733,35.733,0,0,0,7.364-3.068" fill="#909195"/>
    </clipPath>
    <clipPath id="clip-path-2">
      <path id="Trazado_95" data-name="Trazado 95" d="M204.921-67.532a24.772,24.772,0,0,1-5.8,2.8,46.427,46.427,0,0,1-7.8,2.023.157.157,0,0,0-.112.107.138.138,0,0,0,.037.1,3.376,3.376,0,0,0,1.8.668,9.041,9.041,0,0,0,3.253-.351,19.408,19.408,0,0,0,3.392-1.384,21.98,21.98,0,0,0,3.178-1.888,10,10,0,0,0,2.12-1.948c.006-.082-.022-.118-.064-.127" fill="#909195"/>
    </clipPath>
    <clipPath id="clip-path-3">
      <path id="Trazado_97" data-name="Trazado 97" d="M193.1-93.522a5.088,5.088,0,0,0,2.257,1.376l.068.024c.258.07,15.588,4.142,19.648,5.248,1.776.482,3.182.868,3.84,1.058.07,0,.1-.023.113-.065a.091.091,0,0,0-.059-.082C216.408-87,200.61-93.12,194.659-95.42l-2.505-.978c-.084-.01-.126-.005-.158.027a.142.142,0,0,0-.027.1,5.389,5.389,0,0,0,.661,2.15,3.9,3.9,0,0,0,.475.6" fill="#909195"/>
    </clipPath>
    <clipPath id="clip-path-4">
      <path id="Trazado_99" data-name="Trazado 99" d="M193.767-99.608a3.943,3.943,0,0,0,1.159.97,6.284,6.284,0,0,0,.591.34l1.414.723c.8.409,12.644,5.977,14.372,6.844,2.048,1.015,4.091,1.988,4.987,2.441.089.018.132-.01.108-.115-2.2-1.387-10.678-6.767-16.726-10.538l-4.337-2.647-.793-.492-1.474-.9c-.082-.03-.118-.023-.148,0a.09.09,0,0,0-.061.086,5.878,5.878,0,0,0,.308,2.183,5.241,5.241,0,0,0,.6,1.1" fill="#909195"/>
    </clipPath>
    <clipPath id="clip-path-5">
      <path id="Trazado_101" data-name="Trazado 101" d="M204.435-64.856a.125.125,0,0,0-.071.015,15.712,15.712,0,0,1-5.816,3.343.122.122,0,0,0-.1.1.153.153,0,0,0,.076.123c.15.075,1.314.707,3.522-.42a5.308,5.308,0,0,0,2.46-3.045c.021-.082-.027-.114-.067-.117" fill="#909195"/>
    </clipPath>
    <clipPath id="clip-path-6">
      <path id="Trazado_103" data-name="Trazado 103" d="M218.538-81.236c-.986.282-4.743,1.26-8.062,2.11-2.871.746-6.094,1.634-6.094,1.634-.339.085-.215.225-.178.277.084.137.271.431.485.795a1.335,1.335,0,0,0,1.843.537c.117-.04,11.566-4.858,12.081-5.208.089-.049.032-.092.027-.12s-.072-.025-.1-.025" fill="#909195"/>
    </clipPath>
    <clipPath id="clip-path-7">
      <path id="Trazado_105" data-name="Trazado 105" d="M213.51-73.224l-.073.027c-1.512,1.267-3.818,3.3-6.206,5.353a1.654,1.654,0,0,0-.408.938,13.292,13.292,0,0,1-.5,1.579c-.068.2.028.289.22.089,1.841-2,5.917-6.549,7.021-7.849.023-.087-.009-.13-.056-.137" fill="#909195"/>
    </clipPath>
    <clipPath id="clip-path-8">
      <path id="Trazado_107" data-name="Trazado 107" d="M220.761-84.318c-2.034-.379-26.773-4.807-26.788-4.807a.188.188,0,0,0-.134.057.256.256,0,0,0,.005.148,4.607,4.607,0,0,0,3.035,3.1,2.534,2.534,0,0,0,.541.1s20.978,1.387,23.314,1.55c.058,0,.1-.025.1-.066a.085.085,0,0,0-.072-.085" fill="#909195"/>
    </clipPath>
    <clipPath id="clip-path-9">
      <path id="Trazado_109" data-name="Trazado 109" d="M219.73-82.892c-.739.022-2.249.028-4.139.035-2.178.01-4.869.02-7.38.024-3.372.011-8.728.045-8.728.045a.152.152,0,0,0-.1.06.082.082,0,0,0,0,.109,3.919,3.919,0,0,0,.721,1.168,3.49,3.49,0,0,0,2.165,1.155,2.651,2.651,0,0,0,.272.009,1.782,1.782,0,0,0,.284-.029c.1-.013,16.046-2.278,16.91-2.417a.1.1,0,0,0,.076-.07.093.093,0,0,0-.081-.09" fill="#909195"/>
    </clipPath>
    <clipPath id="clip-path-10">
      <path id="Trazado_111" data-name="Trazado 111" d="M217.257-78.989c-1.1.682-3.958,2.448-6.4,3.929-1.369.838-3.1,1.811-3.99,2.374-.1.066-.188.063-.139.342,0,0,.041.267.069.586.1,1.337.633,1.19,1.434.571l.094-.077c2.755-2.289,7.869-6.632,8.984-7.577.028-.1,0-.132-.053-.148" fill="#909195"/>
    </clipPath>
    <clipPath id="clip-path-11">
      <path id="Trazado_113" data-name="Trazado 113" d="M176.834-79.44c0,3.3-1.873,6.438-5.946,6.438-3.64,0-6.248-2.469-6.082-8.411.163-5.7,2.884-8.209,6.475-8.209.282,0,.546-.012.8-.035v.005h4.75ZM171.116-93.48c-5.482.008-10.638,4.084-10.862,12.02-.2,7.218,3.525,12.272,9.828,12.272,5.181,0,7-3.645,7-3.645.294,2.439,1.6,3.183,4.2,3.183V-93.48Z" fill="#fff"/>
    </clipPath>
    <clipPath id="clip-path-12">
      <path id="Trazado_115" data-name="Trazado 115" d="M136.189-93.48l.015,16.525c0,2.412-1.974,3.621-4.583,3.621-2.745,0-4.542-1.209-4.542-3.621l-.034-12.364c-.005-3.525-2.19-4.161-4.113-4.161v17.54c0,4.43,3.946,6.6,8.556,6.6,4.472,0,8.848-2.173,8.848-6.6l0-12.84c0-3.467-1.291-4.7-4.143-4.7" fill="#fff"/>
    </clipPath>
    <clipPath id="clip-path-13">
      <path id="Trazado_117" data-name="Trazado 117" d="M113.165-82.807l-5.041-1.4c-1.387-.387-2.654-.995-2.654-2.7,0-1.782,1.067-2.652,3.309-2.652h4.485c1.983,0,4.344-.666,4.349-3.921l-8.44.008c-5.2.005-8.173,2.654-8.173,6.451,0,3.534,2.224,5.52,6.189,6.584l4.387,1.173a2.872,2.872,0,0,1,2.463,2.813c0,1.791-1.12,2.871-3.843,2.886l-8.426.066v3.85h8.567c5.2,0,8.174-2.817,8.174-6.523,0-3.732-1.456-5.567-5.346-6.635" fill="#fff"/>
    </clipPath>
    <clipPath id="clip-path-14">
      <path id="Trazado_119" data-name="Trazado 119" d="M154.518-93.48c-5.108,0-8.625,2.979-8.625,9.115v14.716h4.113V-84.508c0-3.158,1.688-5.051,4.867-5.051h1.223c3.609,0,4.2-1.884,4.2-3.921Z" fill="#fff"/>
    </clipPath>
  </defs>
  <g id="Logo_SURA" data-name="Logo SURA" transform="translate(-101 103)">
    <g id="Grupo_86" data-name="Grupo 86" clip-path="url(#clip-path)">
      <path id="Trazado_92" data-name="Trazado 92" d="M182.132-74.049H209.7v14.438H182.132Z" fill="#909195"/>
    </g>
    <g id="Grupo_87" data-name="Grupo 87" clip-path="url(#clip-path-2)">
      <path id="Trazado_94" data-name="Trazado 94" d="M186.21-72.532h23.776V-56.8H186.21Z" fill="#909195"/>
    </g>
    <g id="Grupo_88" data-name="Grupo 88" clip-path="url(#clip-path-3)">
      <path id="Trazado_96" data-name="Trazado 96" d="M186.968-101.4h37.064v20.586H186.968Z" fill="#909195"/>
    </g>
    <g id="Grupo_89" data-name="Grupo 89" clip-path="url(#clip-path-4)">
      <path id="Trazado_98" data-name="Trazado 98" d="M187.852-108h33.553v24.715H187.852Z" fill="#909195"/>
    </g>
    <g id="Grupo_90" data-name="Grupo 90" clip-path="url(#clip-path-5)">
      <path id="Trazado_100" data-name="Trazado 100" d="M193.445-69.857h16.062V-56.03H193.445Z" fill="#909195"/>
    </g>
    <g id="Grupo_91" data-name="Grupo 91" clip-path="url(#clip-path-6)">
      <path id="Trazado_102" data-name="Trazado 102" d="M199.151-86.237h24.512v15.512H199.151Z" fill="#909195"/>
    </g>
    <g id="Grupo_92" data-name="Grupo 92" clip-path="url(#clip-path-7)">
      <path id="Trazado_104" data-name="Trazado 104" d="M201.3-78.224h17.27v18.1H201.3Z" fill="#909195"/>
    </g>
    <g id="Grupo_93" data-name="Grupo 93" clip-path="url(#clip-path-8)">
      <path id="Trazado_106" data-name="Trazado 106" d="M188.829-94.125h37v14.958h-37Z" fill="#909195"/>
    </g>
    <g id="Grupo_94" data-name="Grupo 94" clip-path="url(#clip-path-9)">
      <path id="Trazado_108" data-name="Trazado 108" d="M194.361-87.892h30.45v12.606h-30.45Z" fill="#909195"/>
    </g>
    <g id="Grupo_95" data-name="Grupo 95" clip-path="url(#clip-path-10)">
      <path id="Trazado_110" data-name="Trazado 110" d="M201.715-83.989h20.606V-65.73H201.715Z" fill="#909195"/>
    </g>
    <g id="Grupo_96" data-name="Grupo 96" clip-path="url(#clip-path-11)">
      <path id="Trazado_112" data-name="Trazado 112" d="M155.247-98.48h31.038v34.292H155.247Z" fill="#fff"/>
    </g>
    <g id="Grupo_97" data-name="Grupo 97" clip-path="url(#clip-path-12)">
      <path id="Trazado_114" data-name="Trazado 114" d="M117.932-98.48h27.4v34.143h-27.4Z" fill="#fff"/>
    </g>
    <g id="Grupo_98" data-name="Grupo 98" clip-path="url(#clip-path-13)">
      <path id="Trazado_116" data-name="Trazado 116" d="M96-98.48h27.511v33.831H96Z" fill="#fff"/>
    </g>
    <g id="Grupo_99" data-name="Grupo 99" clip-path="url(#clip-path-14)">
      <path id="Trazado_118" data-name="Trazado 118" d="M140.892-98.48h24.4v33.831h-24.4Z" fill="#fff"/>
    </g>
  </g>
</svg>
