<?xml version="1.0" encoding="utf-8"?>
<!-- Generator: Adobe Illustrator 25.1.0, SVG Export Plug-In . SVG Version: 6.00 Build 0)  -->
<svg version="1.1" id="Capa_1" xmlns="http://www.w3.org/2000/svg" xmlns:xlink="http://www.w3.org/1999/xlink" x="0px" y="0px"
	 viewBox="0 169.2 56.4 219.9" style="enable-background:new 0 169.2 56.4 219.9;" xml:space="preserve">
<style type="text/css">
	.st0{fill-rule:evenodd;clip-rule:evenodd;fill:#AAAAAA;}
	.st1{fill:#AAAAAA;}
</style>
<g id="supersalud" transform="translate(-2.81 209.969) rotate(-90)">
	<path id="Trazado_2378" class="st0" d="M18.5,27.4c3.7-2.5-0.3-6.6-3.5-3.4c-5.4,5.3-8.5,12.4-8.5,22.3
		C7.5,33.8,15.5,29.4,18.5,27.4z"/>
	<path id="Trazado_2379" class="st0" d="M10.7,26.1c1.9-2.3-1.5-5-3.5-1.5c-3.2,6-2.4,13.2-1.6,21.7C4.8,35.6,8.2,29.1,10.7,26.1z"
		/>
	<path id="Trazado_2380" class="st0" d="M17.5,30.1c-5,3.4-8.3,8.5-9.8,16.2c2.5-9.5,9.4-11.7,11.9-13C23,31.6,20.5,28.1,17.5,30.1z
		"/>
	<path id="Trazado_2381" class="st0" d="M12.7,22.7c1,0,1.9-0.8,1.9-1.9S13.8,19,12.7,19s-1.9,0.8-1.9,1.9
		C10.9,21.9,11.7,22.7,12.7,22.7z"/>
	<path id="Trazado_2382" class="st0" d="M22.2,20c-1,0-1.9,0.8-1.9,1.9s0.8,1.9,1.9,1.9s1.9-0.8,1.9-1.9c0-1-0.8-1.8-1.7-1.9
		C22.3,20,22.3,20,22.2,20z"/>
	<path id="Trazado_2383" class="st0" d="M22.3,29.4c0,1,0.8,1.9,1.9,1.9s1.9-0.8,1.9-1.9c0-1-0.8-1.9-1.9-1.9
		C23.1,27.6,22.3,28.4,22.3,29.4z"/>
	<path id="Trazado_2384" class="st0" d="M25,14.6C17,9.6,6.4,12,1.3,20.1c-2.1,3.3-2.9,7.3-2.5,11.2c-0.5-8.7,6.2-16.2,14.9-16.6
		S30,20.9,30.5,29.6s-6.2,16.2-14.9,16.6c-0.9,0.1-1.9,0-2.8-0.1C22,48,31.1,41.9,32.9,32.6C34.3,25.5,31.1,18.4,25,14.6z"/>
	<path id="Trazado_2385" class="st0" d="M-93.2,38.8c-1-0.7-1.6-1.2-1.8-1.3l-0.7-0.9l-0.2-0.8c0-0.5,0.2-0.9,0.5-1.2
		c0.4-0.3,0.8-0.5,1.3-0.5c0.4,0,0.8,0.1,1.2,0.3c0.5,0.4,1,0.8,1.3,1.3l1.1-0.8c-0.5-0.7-1.1-1.3-1.8-1.7c-0.5-0.3-1.2-0.5-1.8-0.5
		c-0.6,0-1.2,0.1-1.7,0.4c-0.5,0.3-0.9,0.7-1.2,1.2c-0.3,0.5-0.4,1.1-0.4,1.6c0,0.8,0.2,1.5,0.7,2.1c0.6,0.7,1.3,1.3,2.1,1.9
		c0.9,0.6,1.7,1.3,2.3,2.2c0.3,0.4,0.4,0.9,0.5,1.3c0,0.4-0.1,0.8-0.3,1.1c-0.2,0.4-0.5,0.7-0.9,0.8c-0.4,0.2-0.8,0.3-1.3,0.3
		c-1.1,0-2-0.7-2.8-2.2l-1.2,0.7c0.4,0.9,1.1,1.6,1.9,2.2c0.7,0.4,1.4,0.7,2.2,0.6c1,0,2-0.4,2.7-1.1c0.7-0.7,1.1-1.6,1.1-2.5
		c0-0.7-0.2-1.4-0.6-2C-91.4,40.2-92.2,39.4-93.2,38.8z"/>
	<path id="Trazado_2386" class="st0" d="M-80.2,41.1c0,0.8,0,1.6-0.2,2.5c-0.2,0.6-0.6,1-1.1,1.4c-0.5,0.3-1.2,0.5-1.8,0.5
		c-0.7,0-1.3-0.2-1.9-0.5c-0.5-0.3-0.9-0.9-1.1-1.4c-0.2-0.8-0.2-1.6-0.2-2.4v-4.7h-1.3v4.8c-0.1,1.1,0.1,2.2,0.5,3.2
		c0.3,0.7,0.8,1.3,1.5,1.7c1.5,0.8,3.4,0.8,4.9,0c0.6-0.4,1.1-0.9,1.4-1.6c0.4-1,0.5-2,0.5-3.1v-5h-1.3L-80.2,41.1z"/>
	<path id="Trazado_2387" class="st0" d="M-70.8,36.2c-0.8,0-1.5,0.2-2.2,0.5c-0.7,0.4-1.3,0.9-1.8,1.6v-1.9h-1.3V50h1.3v-5.3
		c0.5,0.6,1.1,1.1,1.8,1.5c0.7,0.3,1.4,0.5,2.2,0.5c1.4,0,2.7-0.5,3.6-1.5c2-2.1,2-5.4,0-7.4C-68.1,36.7-69.4,36.1-70.8,36.2z
		 M-67.5,43.5c-0.3,0.6-0.8,1.1-1.4,1.5c-0.6,0.4-1.3,0.6-1.9,0.6c-0.7,0-1.4-0.2-2-0.6c-0.6-0.3-1.1-0.8-1.5-1.4
		c-0.3-0.6-0.5-1.3-0.5-2c0-2.2,1.7-4,3.9-4c0,0,0.1,0,0.1,0c0.7,0,1.4,0.2,2,0.5c0.6,0.4,1.1,0.9,1.4,1.5c0.4,0.6,0.6,1.3,0.6,2
		C-66.9,42.2-67.1,42.9-67.5,43.5z"/>
	<path id="Trazado_2388" class="st0" d="M-54.5,38.1c-1.8-2.2-5-2.6-7.3-0.8c-0.3,0.2-0.5,0.5-0.8,0.8c-0.8,1-1.2,2.2-1.2,3.4
		c0,1.3,0.5,2.6,1.4,3.6c1,1.1,2.4,1.7,3.8,1.6c0.7,0,1.4-0.1,2-0.3c0.6-0.2,1.1-0.6,1.6-1c0.5-0.5,0.9-1.1,1.2-1.7l-1.1-0.6
		c-0.3,0.5-0.7,1-1.1,1.4c-0.8,0.6-1.7,1-2.7,1c-1,0-2-0.4-2.6-1.1c-0.7-0.8-1.1-1.8-1.1-2.9h9C-53.3,40.3-53.7,39.1-54.5,38.1z
		 M-62.3,40.4c0.2-0.8,0.6-1.5,1.2-2.1c0.7-0.6,1.6-1,2.5-0.9c0.6,0,1.2,0.1,1.7,0.4c0.5,0.2,0.9,0.6,1.3,1c0.4,0.5,0.6,1,0.7,1.6
		L-62.3,40.4L-62.3,40.4z"/>
	<path id="Trazado_2389" class="st0" d="M-48.9,36.6c-0.5,0.4-0.9,0.8-1.2,1.3v-1.4h-1.3v10h1.3v-3.4c0-1.2,0-2.3,0.2-3.5
		c0.1-0.6,0.5-1.2,0.9-1.6c0.3-0.3,0.8-0.5,1.2-0.5l0.7,0.2l0.6-1.1c-0.4-0.2-0.7-0.3-1.2-0.3C-48.1,36.2-48.6,36.3-48.9,36.6z"/>
	<path id="Trazado_2390" class="st0" d="M-42.8,40.7c-0.6-0.3-1.1-0.6-1.6-1.1l-0.4-0.9l0.5-1c0.3-0.3,0.7-0.4,1.1-0.4
		c0.8,0.1,1.5,0.4,2,1l0.8-0.8c-0.7-0.8-1.7-1.3-2.8-1.3c-1.4-0.1-2.7,1-2.7,2.5c0,0,0,0.1,0,0.1c0,0.6,0.2,1.1,0.5,1.6
		c0.5,0.6,1.1,1.1,1.9,1.4c0.6,0.3,1.1,0.6,1.6,1.1l0.4,1c0,0.5-0.2,0.9-0.6,1.2c-0.4,0.3-0.8,0.5-1.3,0.5c-0.8,0-1.6-0.4-2.1-1.1
		l-0.8,0.9c0.3,0.4,0.8,0.8,1.3,1c0.5,0.2,1.1,0.4,1.7,0.4c0.8,0,1.6-0.3,2.2-0.8c0.6-0.5,0.9-1.3,0.9-2.1c0-0.6-0.2-1.1-0.5-1.6
		C-41.3,41.6-42,41.1-42.8,40.7z"/>
	<path id="Trazado_2391" class="st0" d="M-29.4,38.3c-0.5-0.7-1.1-1.2-1.8-1.6c-0.7-0.4-1.4-0.5-2.2-0.5c-1.4,0-2.7,0.5-3.7,1.5
		c-1,1-1.5,2.3-1.5,3.7c0,1.4,0.5,2.7,1.5,3.7c0.9,1,2.2,1.5,3.6,1.5c0.8,0,1.5-0.2,2.2-0.5c0.7-0.4,1.3-0.9,1.8-1.5v1.7h1.2v-10
		h-1.2L-29.4,38.3L-29.4,38.3z M-29.8,43.5c-0.3,0.6-0.8,1.1-1.4,1.4c-0.6,0.4-1.3,0.6-2,0.6c-0.7,0-1.4-0.2-1.9-0.6
		c-0.6-0.3-1.1-0.9-1.4-1.5c-0.4-0.6-0.6-1.3-0.6-2c0-0.7,0.2-1.4,0.6-2c0.3-0.6,0.8-1.1,1.4-1.5c0.6-0.4,1.3-0.5,2-0.5
		c1.1,0,2.1,0.4,2.8,1.2c0.7,0.8,1.2,1.8,1.2,2.9C-29.3,42.2-29.5,42.9-29.8,43.5z"/>
	<path id="Trazado_2392" class="st0" d="M-25.4,46.4h1.3V32.5h-1.3V46.4z"/>
	<path id="Trazado_2393" class="st0" d="M-14.1,41.1c0,0.8,0,1.6-0.2,2.5c-0.2,0.6-0.6,1-1,1.4c-1.1,0.7-2.6,0.7-3.7,0
		c-0.5-0.3-0.9-0.9-1.1-1.4c-0.2-0.8-0.2-1.6-0.2-2.4v-4.7h-1.3v4.8c-0.1,1.1,0.1,2.2,0.5,3.2c0.3,0.7,0.8,1.3,1.5,1.7
		c1.5,0.8,3.4,0.8,4.9,0c0.6-0.4,1.1-0.9,1.4-1.6c0.4-1,0.5-2,0.5-3.1v-5h-1.3L-14.1,41.1L-14.1,41.1z"/>
	<path id="Trazado_2394" class="st0" d="M-1.3,32.5v5.7c-0.5-0.7-1.1-1.2-1.8-1.6c-0.7-0.4-1.4-0.5-2.2-0.5c-1.4,0-2.7,0.5-3.7,1.5
		c-2,2.1-2,5.4,0,7.4c0.9,1,2.2,1.5,3.6,1.5c0.8,0,1.5-0.2,2.2-0.5c0.7-0.4,1.3-0.9,1.8-1.5v1.7h1.2V32.5H-1.3z M-1.7,43.5
		c-0.3,0.6-0.8,1.1-1.4,1.4c-0.6,0.4-1.3,0.6-2,0.6c-0.7,0-1.4-0.2-1.9-0.6c-0.6-0.3-1.1-0.9-1.4-1.5c-0.4-0.6-0.6-1.3-0.6-2
		c0-0.7,0.2-1.4,0.6-2c0.3-0.6,0.8-1.1,1.4-1.5c1.6-0.9,3.5-0.6,4.8,0.6c0.8,0.8,1.2,1.8,1.2,2.9C-1.2,42.2-1.4,42.9-1.7,43.5z"/>
	<path id="Trazado_2395" class="st0" d="M-166.7,43.7l-2.7-7.5h-2.1l3.8,10.6h1.9l3.8-10.6h-2.1L-166.7,43.7z"/>
	
		<rect id="Rectángulo_611" x="-164.7" y="40.4" transform="matrix(-2.535182e-06 -1 1 -2.535182e-06 -200.809 -117.949)" class="st1" width="10.6" height="2"/>
	<path id="Trazado_2396" class="st0" d="M-150.9,43.3h3.1c-0.3,0.6-0.7,1-1.2,1.4c-0.5,0.3-1.1,0.4-1.8,0.4c-1,0-2-0.4-2.7-1.1
		c-0.7-0.7-1.1-1.6-1.1-2.6c0-1,0.4-1.9,1.1-2.5c0.7-0.7,1.6-1.1,2.6-1.1c1.2,0,2.4,0.5,3.1,1.4l1.4-1.4c-0.6-0.6-1.2-1.1-2-1.5
		c-0.8-0.4-1.7-0.5-2.6-0.5c-1.6-0.1-3.2,0.6-4.3,1.9c-0.9,1-1.4,2.3-1.4,3.7c0,1,0.2,2,0.7,2.9c0.5,0.9,1.2,1.6,2.1,2
		c0.9,0.5,1.9,0.7,3,0.7c0.9,0,1.9-0.2,2.7-0.6c0.8-0.4,1.5-1.1,1.9-1.9c0.5-0.9,0.8-2,0.7-3.1h-5.4V43.3z"/>
	
		<rect id="Rectángulo_612" x="-148.1" y="40.4" transform="matrix(-2.535182e-06 -1 1 -2.535182e-06 -184.199 -101.339)" class="st1" width="10.6" height="2"/>
	<path id="Trazado_2397" class="st0" d="M-137.5,36.1h-2v10.6h5v-1.9h-3V36.1z"/>
	<path id="Trazado_2398" class="st0" d="M-129.7,36.1l-4.1,10.6h2.1l0.9-2.2h4.3l0.8,2.2h2.1l-4.1-10.6H-129.7z M-130.1,42.6
		l1.4-3.7l1.4,3.7H-130.1z"/>
	<path id="Trazado_2399" class="st0" d="M-116.2,36.7c-1.1-0.4-2.3-0.6-3.5-0.6h-2.4v10.6h2.5c1,0,2,0,2.9-0.3
		c0.6-0.2,1.1-0.5,1.6-0.9c0.5-0.5,0.9-1.1,1.1-1.7c0.3-0.7,0.4-1.5,0.4-2.3c0-1.1-0.2-2.1-0.7-3C-114.7,37.8-115.4,37.1-116.2,36.7
		z M-116,43.4c-0.2,0.4-0.6,0.8-1,1.1c-0.6,0.3-1.3,0.4-2,0.3h-0.9v-6.8h0.7c1-0.1,2,0.2,2.7,0.8c0.7,0.7,1,1.7,0.9,2.6
		C-115.6,42.2-115.8,42.8-116,43.4z"/>
	<path id="Trazado_2400" class="st0" d="M-106.6,35.8c-1,0-1.9,0.2-2.8,0.7c-0.9,0.5-1.6,1.2-2,2c-1.2,2.2-0.9,4.9,0.8,6.8
		c1,1.1,2.5,1.7,4,1.7c1.5,0,2.9-0.5,3.9-1.6c1-1,1.6-2.5,1.6-3.9c0-1.5-0.6-2.9-1.6-4C-103.8,36.4-105.2,35.8-106.6,35.8z
		 M-104.2,44c-0.6,0.7-1.5,1.1-2.5,1.1c-0.8,0-1.6-0.3-2.3-0.8c-0.8-0.7-1.3-1.7-1.2-2.8c0-1,0.3-1.9,1-2.6c1.4-1.4,3.5-1.4,4.9,0
		c0,0,0,0,0.1,0.1c0.7,0.7,1,1.6,1,2.6C-103.2,42.5-103.5,43.4-104.2,44L-104.2,44z"/>
</g>
</svg>
